<svg width="40" height="40" viewBox="0 0 40 40" fill="none" xmlns="http://www.w3.org/2000/svg">
<path fill-rule="evenodd" clip-rule="evenodd" d="M7.56758 18.3333C7.56758 12.387 12.388 7.5666 18.3342 7.5666C24.2805 7.5666 29.1009 12.387 29.1009 18.3333C29.1009 24.2795 24.2805 29.0999 18.3342 29.0999C12.388 29.0999 7.56758 24.2795 7.56758 18.3333ZM18.3342 5.7666C11.3939 5.7666 5.76758 11.3929 5.76758 18.3333C5.76758 25.2736 11.3939 30.8999 18.3342 30.8999C21.4805 30.8999 24.3566 29.7437 26.561 27.8331L34.3644 35.6364C34.7158 35.9878 35.2857 35.9878 35.6371 35.6364C35.9886 35.2849 35.9886 34.7151 35.6371 34.3636L27.8338 26.5603C29.7446 24.3558 30.9009 21.4796 30.9009 18.3333C30.9009 11.3929 25.2746 5.7666 18.3342 5.7666Z" fill="#0921FF"/>
</svg>
