<svg width="40" height="40" viewBox="0 0 40 40" fill="none" xmlns="http://www.w3.org/2000/svg">
<path fill-rule="evenodd" clip-rule="evenodd" d="M20.0003 0.766602C19.1945 0.766602 18.4025 0.976412 17.7035 1.37561L17.7017 1.37661L4.74223 8.70948L4.74223 8.70947L4.73876 8.71145C4.03999 9.11094 3.4585 9.68599 3.05349 10.3798C2.64844 11.0737 2.43443 11.8615 2.43359 12.6642L2.43359 12.6651V27.3348L2.43359 27.3357C2.43443 28.1384 2.64844 28.9262 3.05349 29.6201C3.45849 30.3139 4.03999 30.8889 4.73876 31.2884L4.74223 31.2904L17.7017 38.6233L17.7037 38.6244C18.4017 39.023 19.1927 39.2328 19.9973 39.2333H20.0003H20.0032C20.8078 39.2328 21.5987 39.023 22.2968 38.6244L22.2988 38.6233L35.2583 31.2904L35.2618 31.2884C35.9605 30.8889 36.542 30.3139 36.947 29.6201C37.3521 28.9262 37.5661 28.1384 37.5669 27.3357V27.3348V12.6651V12.6642C37.5661 11.8615 37.3521 11.0737 36.947 10.3798C36.542 9.68599 35.9605 9.11094 35.2618 8.71144L35.2583 8.70948L22.2988 1.37661L22.2969 1.37555C21.598 0.976391 20.806 0.766602 20.0003 0.766602ZM21.4054 37.0606C21.2444 37.1526 21.0752 37.2283 20.9003 37.2868V20.5188L35.6748 11.9652C35.7355 12.1931 35.7667 12.4286 35.7669 12.666V27.3338C35.7664 27.8174 35.6375 28.2929 35.3925 28.7126C35.1478 29.1319 34.7955 29.4812 34.37 29.7248L34.3684 29.7258L21.4089 37.0586L21.4054 37.0606ZM19.1003 37.2868V20.5188L4.32575 11.9652C4.26508 12.1929 4.23388 12.4283 4.23359 12.6656V27.3343C4.23417 27.8177 4.36305 28.293 4.608 28.7126C4.85278 29.1319 5.20513 29.4813 5.63064 29.7249L5.63213 29.7258L18.5916 37.0586L18.5951 37.0606C18.7561 37.1526 18.9254 37.2283 19.1003 37.2868ZM18.5951 2.93927C19.0217 2.69535 19.5064 2.5666 20.0003 2.5666C20.4941 2.5666 20.9788 2.69535 21.4054 2.93927L21.4089 2.94124L34.3684 10.2741L34.3702 10.2751C34.473 10.334 34.5715 10.399 34.6652 10.4697L28.4851 14.0477L13.8932 5.59977L18.5916 2.94125L18.5951 2.93927ZM12.0763 6.6278L26.6888 15.0877L20.0003 18.96L5.33527 10.4697C5.42908 10.399 5.52765 10.3339 5.6305 10.275L5.63213 10.2741L12.0763 6.6278Z" fill="#0921FF"/>
</svg>
