<svg width="40" height="40" viewBox="0 0 40 40" fill="none" xmlns="http://www.w3.org/2000/svg">
<path fill-rule="evenodd" clip-rule="evenodd" d="M3.66758 7.2666C2.06595 7.2666 0.767578 8.56498 0.767578 10.1666V26.1666C0.767578 27.7682 2.06595 29.0666 3.66758 29.0666H4.10134C4.13703 31.8341 6.39159 34.0666 9.16758 34.0666C11.9436 34.0666 14.1981 31.8341 14.2338 29.0666H25.0009C25.3352 29.0666 25.6268 28.8844 25.7821 28.6139C25.7725 28.7413 25.7676 28.8701 25.7676 28.9999C25.7676 31.7982 28.036 34.0666 30.8342 34.0666C33.6102 34.0666 35.8648 31.8341 35.9005 29.0666H38.3342C38.8313 29.0666 39.2342 28.6637 39.2342 28.1666V22.1666C39.2342 21.5391 39.0307 20.9286 38.6542 20.4266L34.6542 15.0933C34.1066 14.363 33.247 13.9333 32.3342 13.9333H25.9009V10.1666C25.9009 8.56498 24.6025 7.2666 23.0009 7.2666H3.66758ZM25.9009 15.7333V27.8403C26.4253 25.6009 28.435 23.9333 30.8342 23.9333C33.0237 23.9333 34.8887 25.322 35.5967 27.2666H37.4342V22.1666C37.4342 21.9286 37.357 21.697 37.2142 21.5066L33.2142 16.1733C33.0065 15.8963 32.6805 15.7333 32.3342 15.7333H25.9009ZM24.1009 14.8333V10.1666C24.1009 9.55909 23.6084 9.0666 23.0009 9.0666H3.66758C3.06007 9.0666 2.56758 9.55909 2.56758 10.1666V26.1666C2.56758 26.7741 3.06006 27.2666 3.66758 27.2666H4.40516C5.1131 25.322 6.97816 23.9333 9.16758 23.9333C11.357 23.9333 13.2221 25.322 13.93 27.2666H24.1009V14.8333ZM5.90091 28.9999C5.90091 27.1958 7.36345 25.7333 9.16758 25.7333C10.9717 25.7333 12.4342 27.1958 12.4342 28.9999C12.4342 30.8041 10.9717 32.2666 9.16758 32.2666C7.36345 32.2666 5.90091 30.8041 5.90091 28.9999ZM27.5676 28.9999C27.5676 27.1958 29.0301 25.7333 30.8342 25.7333C32.6384 25.7333 34.1009 27.1958 34.1009 28.9999C34.1009 30.8041 32.6384 32.2666 30.8342 32.2666C29.0301 32.2666 27.5676 30.8041 27.5676 28.9999Z" fill="#0921FF"/>
</svg>
