<svg width="40" height="40" viewBox="0 0 40 40" fill="none" xmlns="http://www.w3.org/2000/svg">
<path fill-rule="evenodd" clip-rule="evenodd" d="M13.1431 5.89961C8.33549 5.89961 4.23359 9.80644 4.23359 14.8888C4.23359 18.4676 5.77275 21.5172 7.89359 24.106C10.013 26.693 12.7675 28.8867 15.3162 30.7607L19.7326 34.0078C19.8991 34.1302 20.1014 34.1302 20.2679 34.0078L24.6843 30.7607C27.2331 28.8867 29.9876 26.693 32.1069 24.106C34.2278 21.5172 35.7669 18.4676 35.7669 14.8888C35.7669 9.80644 31.665 5.89961 26.8574 5.89961C24.4406 5.89961 22.2583 7.13387 20.6501 8.81227C20.4804 8.98943 20.2456 9.08961 20.0003 9.08961C19.7549 9.08961 19.5202 8.98943 19.3504 8.81227C17.7422 7.13387 15.5599 5.89961 13.1431 5.89961ZM2.43359 14.8888C2.43359 8.79678 7.357 4.09961 13.1431 4.09961C15.8449 4.09961 18.2149 5.31829 20.0003 6.93502C21.7856 5.31829 24.1556 4.09961 26.8574 4.09961C32.6435 4.09961 37.5669 8.79678 37.5669 14.8888C37.5669 19.0189 35.7829 22.4593 33.4993 25.2467C31.2295 28.0174 28.3212 30.3208 25.7506 32.2109L21.3342 35.458C20.5333 36.0468 19.4672 36.0468 18.6663 35.458L14.2499 32.2109C11.6793 30.3208 8.77104 28.0174 6.50118 25.2467C4.21766 22.4593 2.43359 19.0189 2.43359 14.8888Z" fill="#0921FF"/>
</svg>
